<svg xmlns="http://www.w3.org/2000/svg" xmlns:xlink="http://www.w3.org/1999/xlink" width="500" zoomAndPan="magnify" viewBox="0 0 375 374.999991" height="500" preserveAspectRatio="xMidYMid meet" version="1.0"><defs><g/><clipPath id="0175196ff3"><path d="M 108 171 L 274 171 L 274 178.808594 L 108 178.808594 Z M 108 171 " clip-rule="nonzero"/></clipPath><clipPath id="c50673c5d2"><path d="M 76.765625 146 L 298.015625 146 L 298.015625 178.808594 L 76.765625 178.808594 Z M 76.765625 146 " clip-rule="nonzero"/></clipPath></defs><g clip-path="url(#0175196ff3)"><path fill="#ed2323" d="M 116.117188 177.414062 C 122.132812 177.789062 128.132812 178.15625 134.136719 178.46875 C 134.648438 178.234375 135.410156 178.082031 136.542969 178.007812 C 167.40625 176.429688 202.007812 175.546875 273.6875 171.820312 C 261.230469 170.984375 202.339844 173.066406 165.488281 174.222656 C 147.792969 174.777344 130.089844 175.515625 112.414062 176.589844 C 112.089844 176.597656 110.320312 176.761719 108.355469 177.027344 C 110.957031 177.113281 113.550781 177.246094 116.117188 177.414062 Z M 116.117188 177.414062 " fill-opacity="1" fill-rule="nonzero"/></g><g clip-path="url(#c50673c5d2)"><path fill="#000000" d="M 297.824219 178.1875 C 297.4375 177.148438 297.042969 176.132812 296.449219 175.210938 C 297.054688 174.328125 297.300781 173.347656 297.214844 172.140625 C 297.179688 171.800781 297.121094 171.46875 297.035156 171.136719 C 296.875 170.449219 296.664062 169.5 296.980469 169.175781 L 297.015625 169.136719 C 297.148438 168.996094 297.238281 168.832031 297.285156 168.644531 C 297.300781 168.570312 297.3125 168.5 297.320312 168.433594 L 297.320312 168.339844 C 297.300781 166.183594 296.800781 164.785156 294.320312 163.976562 C 292.757812 163.464844 290.917969 163.457031 289.292969 163.449219 L 288.632812 163.449219 C 286.257812 163.425781 283.886719 163.304688 281.632812 163.105469 C 280.101562 162.855469 278.554688 162.316406 277.058594 161.800781 C 276.570312 161.625 276.085938 161.460938 275.605469 161.300781 C 274.09375 160.8125 272.578125 160.308594 271.066406 159.808594 C 268.527344 158.972656 265.894531 158.105469 263.292969 157.269531 C 253.988281 154.277344 244.039062 151.207031 233.832031 149.414062 C 215.332031 145.808594 197.378906 145.058594 180.484375 147.1875 C 163.910156 149.277344 149.125 157.078125 134.832031 164.613281 L 132.066406 166.070312 C 122.886719 166.109375 110.9375 166.582031 99.652344 169.851562 C 92.847656 171.820312 85.84375 174.535156 78.820312 177.921875 L 76.929688 178.832031 L 82.433594 178.820312 L 82.519531 178.785156 C 87.136719 176.789062 94.425781 173.957031 99.433594 172.40625 C 110.492188 168.976562 122.285156 168.484375 132.359375 168.453125 C 132.554688 168.453125 132.738281 168.410156 132.910156 168.320312 L 132.941406 168.300781 C 133.976562 167.757812 135.007812 167.21875 136.035156 166.675781 C 149.894531 159.363281 164.230469 151.804688 180.1875 149.621094 C 196.664062 147.367188 214.523438 148.078125 233.289062 151.738281 C 243.304688 153.496094 253.277344 156.566406 262.632812 159.558594 C 265.476562 160.464844 268.355469 161.414062 271.140625 162.335938 L 274.503906 163.445312 L 276.074219 163.988281 C 277.738281 164.566406 279.464844 165.167969 281.210938 165.441406 L 281.296875 165.453125 L 281.429688 165.472656 C 283.796875 165.691406 286.394531 165.8125 289.386719 165.839844 C 290.839844 165.851562 292.285156 166 293.710938 166.277344 C 294.289062 166.382812 294.582031 166.589844 294.734375 166.894531 C 291.417969 166.90625 288.191406 167.609375 285.445312 168.304688 L 284.679688 168.5 C 282.609375 169.007812 280.261719 169.59375 278.421875 170.707031 C 278.066406 170.925781 277.859375 171.277344 277.851562 171.636719 C 277.839844 171.761719 277.847656 171.886719 277.871094 172.011719 C 278.707031 176.085938 283.171875 176.390625 284.636719 176.492188 C 288.132812 176.730469 291.398438 176.664062 294.335938 176.292969 C 294.890625 177.039062 295.261719 177.871094 295.527344 178.535156 L 295.648438 178.832031 L 298.0625 178.832031 Z M 294.070312 173.9375 C 291.753906 174.222656 289.347656 174.222656 286.875 174.1875 L 286.335938 174.1875 C 284.152344 174.175781 281.472656 174.164062 280.492188 172.320312 C 281.699219 171.761719 283.078125 171.402344 284.414062 171.050781 L 285.46875 170.773438 C 288.996094 169.796875 291.894531 169.328125 294.515625 169.292969 C 294.480469 169.851562 294.582031 170.449219 294.671875 171.039062 C 294.90625 172.492188 294.984375 173.425781 294.070312 173.9375 Z M 294.070312 173.9375 " fill-opacity="1" fill-rule="nonzero"/></g><path fill="#000000" d="M 258.265625 166.25 C 258.265625 166.25 256.304688 167 255.449219 167.164062 C 254.007812 167.4375 249.074219 167.992188 249.074219 167.992188 C 254.035156 168.417969 275.085938 167.113281 274.164062 167.113281 C 269.191406 167.113281 262.140625 166.574219 258.265625 166.25 Z M 258.265625 166.25 " fill-opacity="1" fill-rule="nonzero"/><path fill="#000000" d="M 259.566406 161.851562 C 260.347656 161.054688 259.585938 160.613281 259.375 160.539062 C 238.8125 153.652344 216.488281 149.886719 194.6875 150.238281 C 192.875 150.273438 191.066406 150.324219 189.265625 150.410156 C 175.808594 151.0625 162.671875 155.226562 150.644531 161.363281 L 150.625 161.363281 C 150.394531 161.472656 150.160156 161.59375 149.941406 161.714844 C 145.890625 163.824219 141.960938 166.140625 138.15625 168.664062 C 137.148438 169.398438 137.359375 169.949219 138.472656 170.097656 C 139.726562 170.195312 141.691406 170.148438 143.257812 170.164062 C 145.21875 170.191406 153.054688 170.050781 161.15625 169.882812 C 168.203125 169.738281 175.445312 169.574219 179.210938 169.453125 C 192.058594 169.0625 204.878906 168.65625 217.734375 168.453125 C 224.699219 168.339844 231.664062 168.191406 238.613281 167.820312 C 242.886719 167.597656 247.632812 167.617188 251.738281 166.28125 C 254.703125 165.375 257.371094 164.074219 259.566406 161.851562 Z M 140.511719 168.835938 C 142.496094 167.570312 144.519531 166.355469 146.578125 165.183594 C 146.160156 166.257812 146.160156 167.457031 146.785156 168.722656 C 144.722656 168.789062 142.59375 168.921875 140.511719 168.835938 Z M 189.640625 167.589844 C 182.105469 167.847656 174.570312 168.171875 167.027344 168.351562 L 161.132812 168.476562 L 156.488281 168.566406 C 157.621094 166.523438 157.570312 164.882812 156.992188 163.691406 C 156.324219 162.277344 154.949219 161.480469 153.976562 161.320312 C 165.058594 156.023438 176.996094 152.492188 189.253906 151.84375 C 191.066406 151.75 192.890625 151.683594 194.707031 151.652344 C 192.363281 156.671875 190.972656 162.242188 189.640625 167.589844 Z M 197.015625 167.621094 L 195.554688 167.636719 C 195.941406 163.535156 197.539062 157.167969 198.472656 153.164062 C 198.472656 153.164062 197.386719 163.648438 197.015625 167.621094 Z M 232.066406 166.675781 C 223.09375 166.992188 214.113281 167.078125 205.140625 167.183594 L 202.640625 167.230469 C 202.699219 162.050781 203.136719 156.878906 203.441406 151.710938 C 211.722656 151.992188 219.949219 152.824219 228.121094 154.203125 C 228.136719 154.222656 228.15625 154.242188 228.175781 154.257812 C 232.417969 157.914062 236.351562 162.023438 239.980469 166.316406 C 237.339844 166.476562 234.699219 166.582031 232.066406 166.675781 Z M 243.925781 166.039062 C 243.203125 166.097656 242.472656 166.144531 241.746094 166.195312 C 238.367188 162.144531 234.722656 158.21875 230.792969 154.664062 C 239.960938 156.335938 248.96875 158.625 257.824219 161.535156 C 255.957031 163.160156 253.78125 164.160156 251.367188 164.902344 C 248.953125 165.644531 246.394531 165.824219 243.925781 166.039062 Z M 243.925781 166.039062 " fill-opacity="1" fill-rule="nonzero"/><g fill="#000000" fill-opacity="1"><g transform="translate(140.332425, 207.406436)"><g><path d="M 22.199219 0 L 26.121094 0 L 15.125 -20.019531 L 15.15625 -20.121094 L 11.132812 -20.121094 L 11.199219 -20.019531 L 0.167969 0 L 4.089844 0 L 6.070312 -3.589844 L 20.21875 -3.589844 Z M 7.914062 -6.941406 L 13.144531 -16.464844 L 18.375 -6.941406 Z M 7.914062 -6.941406 "/></g></g></g><g fill="#000000" fill-opacity="1"><g transform="translate(169.568902, 207.406436)"><g><path d="M 23.507812 -13.613281 L 26.925781 -13.613281 C 26.925781 -18.644531 22.367188 -20.421875 15.15625 -20.421875 C 6.605469 -20.421875 2.714844 -18.441406 2.714844 -14.753906 L 2.714844 -14.484375 C 2.714844 -9.960938 6.371094 -9.355469 14.417969 -8.515625 C 23.171875 -7.710938 23.203125 -6.503906 23.203125 -5.96875 L 23.203125 -5.566406 C 23.203125 -3.21875 18.175781 -3.019531 14.453125 -3.019531 C 8.753906 -3.019531 6.101562 -4.527344 6.101562 -6.941406 L 2.683594 -6.941406 C 2.683594 -2.449219 6.574219 0.335938 14.453125 0.335938 C 22.871094 0.335938 26.726562 -1.242188 26.726562 -5.667969 L 26.726562 -6.003906 C 26.726562 -10.5625 22.230469 -11.199219 14.621094 -11.902344 C 6.269531 -12.675781 6.238281 -13.714844 6.238281 -14.519531 L 6.238281 -14.820312 C 6.238281 -16.429688 10.394531 -17.066406 15.15625 -17.066406 C 19.917969 -17.066406 23.507812 -16.195312 23.507812 -13.613281 Z M 23.507812 -13.613281 "/></g></g></g><g fill="#000000" fill-opacity="1"><g transform="translate(202.124566, 207.406436)"><g><path d="M 16.296875 0.335938 C 25.382812 0.335938 29.039062 -3.285156 29.710938 -7.542969 L 25.988281 -7.542969 C 25.25 -4.929688 22.5 -3.019531 16.296875 -3.019531 C 9.019531 -3.019531 6.171875 -5.769531 6.171875 -9.757812 L 6.171875 -10.460938 C 6.171875 -14.453125 9.019531 -17.203125 16.296875 -17.203125 C 21.863281 -17.203125 25.617188 -15.222656 26.019531 -12.875 L 29.742188 -12.875 C 29.441406 -16.898438 24.746094 -20.554688 16.296875 -20.554688 C 5.933594 -20.554688 2.683594 -15.761719 2.683594 -10.460938 L 2.683594 -9.757812 C 2.683594 -4.460938 5.933594 0.335938 16.296875 0.335938 Z M 16.296875 0.335938 "/></g></g></g><g fill="#ed2323" fill-opacity="1"><g transform="translate(146.795502, 226.641621)"><g><path d="M 1.152344 0.0117188 C 0.960938 -0.15625 1.1875 -0.480469 1.210938 -0.695312 C 1.234375 -0.925781 1.152344 -1.140625 1.152344 -1.378906 C 1.152344 -1.765625 1.164062 -2.148438 1.164062 -2.519531 C 1.152344 -3.277344 1.140625 -4.042969 1.140625 -4.800781 L 1.140625 -5.398438 C 1.140625 -6.085938 1.128906 -6.757812 1.128906 -7.441406 C 1.117188 -7.765625 1.03125 -8.148438 1.332031 -8.363281 C 1.753906 -8.675781 2.507812 -8.410156 2.988281 -8.410156 C 5.148438 -8.410156 7.320312 -8.542969 9.480469 -8.363281 C 11.113281 -8.230469 12.863281 -7.835938 14.207031 -6.863281 C 14.375 -6.730469 14.554688 -6.636719 14.699219 -6.492188 C 15.636719 -5.578125 15.863281 -4.03125 15.226562 -2.878906 C 14.59375 -1.714844 13.308594 -0.996094 12.085938 -0.589844 C 11.890625 -0.527344 11.6875 -0.480469 11.496094 -0.433594 C 11.292969 -0.371094 11.101562 -0.347656 10.894531 -0.3125 C 7.871094 0.324219 4.632812 -0.179688 1.558594 0.0859375 C 1.464844 0.0859375 1.355469 0.0976562 1.261719 0.0585938 C 1.210938 0.046875 1.1875 0.0234375 1.152344 0.0117188 Z M 3.394531 -1.570312 C 3.480469 -1.488281 3.636719 -1.488281 3.757812 -1.5 C 6.359375 -1.691406 9.070312 -1.234375 11.578125 -2.195312 C 12.660156 -2.605469 13.691406 -3.683594 13.246094 -4.921875 C 13.1875 -5.113281 13.078125 -5.28125 12.949219 -5.4375 C 12.550781 -5.914062 12.035156 -6.203125 11.449219 -6.394531 C 9.71875 -6.960938 7.703125 -6.851562 5.914062 -6.851562 L 3.792969 -6.851562 C 3.179688 -6.851562 3.421875 -6.660156 3.421875 -6.238281 C 3.421875 -5.953125 3.371094 -5.953125 3.371094 -5.664062 C 3.371094 -5.363281 3.394531 -5.363281 3.394531 -5.074219 C 3.394531 -4.789062 3.394531 -4.789062 3.394531 -4.488281 L 3.394531 -2.375 C 3.394531 -2.171875 3.238281 -1.738281 3.382812 -1.585938 C 3.382812 -1.570312 3.394531 -1.570312 3.394531 -1.570312 Z M 3.394531 -1.570312 "/></g></g></g><g fill="#ed2323" fill-opacity="1"><g transform="translate(163.607534, 226.641621)"><g><path d="M 13.5 -0.480469 C 13.03125 -0.949219 12.5625 -1.414062 12.121094 -1.894531 C 11.890625 -2.125 11.6875 -2.363281 11.472656 -2.59375 C 11.257812 -2.796875 10.992188 -2.953125 10.8125 -3.191406 C 10.789062 -3.226562 10.765625 -3.265625 10.777344 -3.300781 C 10.789062 -3.421875 11.351562 -3.457031 11.460938 -3.480469 C 11.710938 -3.550781 11.976562 -3.636719 12.203125 -3.78125 C 12.382812 -3.886719 12.5625 -4.019531 12.71875 -4.175781 C 12.804688 -4.273438 13.117188 -4.535156 13.117188 -4.679688 C 13.597656 -5.496094 13.558594 -6.613281 12.949219 -7.34375 C 12.574219 -7.789062 12.011719 -8.0625 11.449219 -8.207031 C 10.871094 -8.351562 10.273438 -8.363281 9.683594 -8.375 C 6.949219 -8.449219 4.199219 -8.449219 1.464844 -8.386719 C 1.378906 -8.386719 1.296875 -8.386719 1.246094 -8.328125 C 1.199219 -8.28125 1.199219 -8.195312 1.199219 -8.136719 L 1.199219 -3.828125 C 1.199219 -3.109375 1.199219 -2.386719 1.199219 -1.679688 L 1.199219 -0.601562 C 1.199219 -0.382812 1.03125 -0.0234375 1.332031 0.0585938 C 1.464844 0.0976562 1.585938 0.0585938 1.714844 0.0351562 C 2.160156 -0.0585938 2.628906 -0.046875 3.070312 0.046875 C 3.15625 0.0703125 3.238281 0.0976562 3.3125 0.0703125 C 3.46875 0.0117188 3.492188 -0.191406 3.480469 -0.347656 C 3.480469 -0.839844 3.46875 -1.332031 3.457031 -1.8125 C 3.445312 -2.0625 3.445312 -2.316406 3.433594 -2.566406 C 3.433594 -2.734375 3.433594 -2.890625 3.421875 -3.058594 C 3.421875 -3.109375 3.421875 -3.167969 3.457031 -3.203125 C 3.5625 -3.3125 4.007812 -3.226562 4.164062 -3.226562 C 4.441406 -3.226562 4.703125 -3.238281 4.980469 -3.238281 C 5.484375 -3.238281 5.988281 -3.238281 6.480469 -3.253906 L 7.414062 -3.253906 C 7.65625 -3.265625 7.894531 -3.265625 8.136719 -3.179688 C 8.484375 -3.070312 8.746094 -2.785156 8.988281 -2.507812 L 10.859375 -0.480469 C 11.015625 -0.3125 11.171875 -0.132812 11.386719 -0.046875 C 11.566406 0.0234375 11.773438 0.0234375 11.976562 0.0234375 L 13.765625 0.0234375 C 13.8125 0.0234375 13.871094 0.0117188 13.882812 -0.0234375 C 13.894531 -0.0703125 13.859375 -0.0976562 13.835938 -0.132812 C 13.726562 -0.253906 13.609375 -0.359375 13.5 -0.480469 Z M 7.320312 -4.800781 L 6.78125 -4.800781 C 5.761719 -4.8125 4.738281 -4.8125 3.71875 -4.8125 C 3.574219 -4.8125 3.457031 -4.847656 3.457031 -5.003906 C 3.457031 -5.375 3.457031 -5.734375 3.445312 -6.109375 C 3.445312 -6.265625 3.335938 -6.71875 3.492188 -6.816406 C 3.5625 -6.875 3.71875 -6.839844 3.816406 -6.839844 C 3.960938 -6.839844 4.105469 -6.816406 4.261719 -6.828125 L 4.882812 -6.828125 C 5.941406 -6.839844 6.984375 -6.828125 8.039062 -6.828125 C 8.699219 -6.828125 9.359375 -6.839844 10.019531 -6.730469 C 10.308594 -6.683594 10.609375 -6.613281 10.847656 -6.433594 C 11.089844 -6.265625 11.257812 -5.953125 11.183594 -5.664062 C 11.148438 -5.472656 10.992188 -5.304688 10.824219 -5.195312 C 10.644531 -5.089844 10.453125 -5.027344 10.246094 -4.980469 C 9.3125 -4.765625 8.304688 -4.777344 7.320312 -4.800781 Z M 7.320312 -4.800781 "/></g></g></g><g fill="#ed2323" fill-opacity="1"><g transform="translate(178.655562, 226.641621)"><g><path d="M 1.175781 -8.425781 C 1.1875 -8.4375 1.199219 -8.460938 1.222656 -8.472656 C 1.476562 -8.652344 2.027344 -8.398438 2.316406 -8.398438 C 2.472656 -8.398438 2.640625 -8.375 2.796875 -8.386719 C 3.023438 -8.398438 3.3125 -8.59375 3.46875 -8.339844 C 3.613281 -8.089844 3.433594 -7.488281 3.421875 -7.199219 C 3.359375 -5.941406 3.371094 -4.667969 3.394531 -3.40625 L 3.433594 -1.511719 C 3.433594 -1.199219 3.40625 -0.863281 3.445312 -0.5625 C 3.457031 -0.421875 3.539062 -0.191406 3.457031 -0.046875 C 3.3125 0.191406 2.832031 0.0703125 2.617188 0.046875 C 2.351562 0.0117188 2.0625 -0.0117188 1.800781 0.0117188 C 1.609375 0.0351562 1.261719 0.179688 1.164062 -0.0585938 C 1.117188 -0.167969 1.140625 -0.289062 1.152344 -0.394531 C 1.285156 -1.390625 1.234375 -2.386719 1.210938 -3.382812 C 1.1875 -4.164062 1.1875 -4.933594 1.1875 -5.710938 C 1.199219 -6.203125 1.246094 -6.695312 1.234375 -7.175781 C 1.234375 -7.453125 0.996094 -8.21875 1.175781 -8.425781 Z M 1.175781 -8.425781 "/></g></g></g><g fill="#ed2323" fill-opacity="1"><g transform="translate(183.827571, 226.641621)"><g><path d="M 13.429688 -8.386719 C 13.402344 -8.472656 13.332031 -8.507812 13.164062 -8.460938 C 12.792969 -8.339844 12.394531 -8.316406 12.023438 -8.398438 C 11.867188 -8.4375 11.699219 -8.484375 11.53125 -8.449219 C 11.328125 -8.386719 11.195312 -8.183594 11.089844 -8.003906 C 10.402344 -6.851562 9.71875 -5.710938 9.035156 -4.570312 C 8.710938 -4.03125 8.410156 -3.480469 8.101562 -2.929688 C 7.980469 -2.734375 7.175781 -1.140625 6.984375 -1.390625 C 6.660156 -1.777344 6.492188 -2.230469 6.226562 -2.664062 L 5.207031 -4.390625 C 4.523438 -5.542969 3.851562 -6.707031 3.179688 -7.859375 C 3.070312 -8.039062 2.953125 -8.21875 2.773438 -8.328125 C 2.605469 -8.425781 2.398438 -8.425781 2.195312 -8.425781 C 1.789062 -8.425781 1.222656 -8.496094 0.828125 -8.386719 C 0.527344 -8.292969 1.054688 -7.644531 1.152344 -7.488281 C 1.367188 -7.117188 1.597656 -6.730469 1.8125 -6.359375 L 3.121094 -4.164062 C 3.492188 -3.527344 3.851562 -2.878906 4.234375 -2.257812 C 4.429688 -1.933594 4.632812 -1.621094 4.824219 -1.296875 C 4.980469 -1.03125 5.207031 -0.816406 5.339844 -0.539062 C 5.519531 -0.191406 5.628906 0.0585938 6.058594 0.046875 L 8.148438 0.0117188 C 8.808594 0 9.121094 -0.984375 9.421875 -1.476562 C 9.863281 -2.230469 10.320312 -2.976562 10.765625 -3.730469 L 12.191406 -6.132812 C 12.480469 -6.613281 12.804688 -7.066406 13.078125 -7.546875 C 13.152344 -7.679688 13.464844 -8.171875 13.429688 -8.386719 Z M 13.429688 -8.386719 "/></g></g></g><g fill="#ed2323" fill-opacity="1"><g transform="translate(198.491591, 226.641621)"><g><path d="M 1.199219 0 C 1.164062 -0.0585938 1.152344 -0.132812 1.140625 -0.191406 C 1.066406 -0.660156 1.199219 -1.105469 1.199219 -1.570312 C 1.210938 -2.28125 1.210938 -2.988281 1.210938 -3.707031 C 1.210938 -4.726562 1.210938 -5.746094 1.199219 -6.769531 C 1.199219 -7.199219 0.898438 -8.425781 1.523438 -8.425781 L 13.007812 -8.386719 C 13.164062 -8.386719 13.332031 -8.375 13.429688 -8.257812 C 13.488281 -8.171875 13.5 -8.0625 13.5 -7.957031 L 13.535156 -7.105469 C 13.535156 -6.960938 13.535156 -6.792969 13.414062 -6.695312 C 13.199219 -6.515625 12.863281 -6.589844 12.613281 -6.613281 C 12.265625 -6.636719 11.902344 -6.625 11.542969 -6.625 C 10.691406 -6.636719 9.828125 -6.636719 8.976562 -6.648438 C 7.273438 -6.660156 5.578125 -6.660156 3.886719 -6.671875 C 3.144531 -6.671875 3.359375 -5.878906 3.347656 -5.316406 C 3.335938 -5.136719 3.421875 -4.921875 3.601562 -4.882812 C 3.863281 -4.824219 4.378906 -4.933594 4.691406 -4.933594 C 6.277344 -4.933594 7.859375 -4.945312 9.445312 -4.945312 C 10.234375 -4.957031 11.027344 -4.957031 11.820312 -4.96875 C 12.277344 -4.96875 13.609375 -5.269531 13.523438 -4.5 L 13.414062 -3.503906 C 13.414062 -3.445312 13.402344 -3.382812 13.367188 -3.347656 C 13.320312 -3.300781 13.246094 -3.300781 13.1875 -3.300781 C 10.355469 -3.289062 7.511719 -3.289062 4.691406 -3.289062 C 4.402344 -3.289062 4.164062 -3.277344 3.886719 -3.359375 C 3.707031 -3.40625 3.480469 -3.421875 3.382812 -3.265625 C 3.238281 -3 3.3125 -2.628906 3.347656 -2.351562 C 3.382812 -2.039062 3.347656 -1.726562 3.742188 -1.726562 C 6.839844 -1.738281 9.9375 -1.753906 13.03125 -1.777344 C 13.644531 -1.777344 13.5 -1.546875 13.5 -1.105469 C 13.488281 -0.816406 13.691406 -0.347656 13.523438 -0.0859375 C 13.34375 0.226562 13.105469 -0.0117188 12.839844 -0.0117188 C 12.539062 -0.0117188 12.539062 -0.0234375 12.226562 -0.0234375 C 8.890625 -0.0234375 5.554688 0.0585938 2.21875 -0.0117188 C 2.050781 -0.0234375 1.871094 -0.0234375 1.703125 0.0234375 C 1.546875 0.0585938 1.34375 0.144531 1.222656 0.0234375 Z M 1.199219 0 "/></g></g></g><g fill="#ed2323" fill-opacity="1"><g transform="translate(213.683622, 226.641621)"><g><path d="M 13.5 -0.480469 C 13.03125 -0.949219 12.5625 -1.414062 12.121094 -1.894531 C 11.890625 -2.125 11.6875 -2.363281 11.472656 -2.59375 C 11.257812 -2.796875 10.992188 -2.953125 10.8125 -3.191406 C 10.789062 -3.226562 10.765625 -3.265625 10.777344 -3.300781 C 10.789062 -3.421875 11.351562 -3.457031 11.460938 -3.480469 C 11.710938 -3.550781 11.976562 -3.636719 12.203125 -3.78125 C 12.382812 -3.886719 12.5625 -4.019531 12.71875 -4.175781 C 12.804688 -4.273438 13.117188 -4.535156 13.117188 -4.679688 C 13.597656 -5.496094 13.558594 -6.613281 12.949219 -7.34375 C 12.574219 -7.789062 12.011719 -8.0625 11.449219 -8.207031 C 10.871094 -8.351562 10.273438 -8.363281 9.683594 -8.375 C 6.949219 -8.449219 4.199219 -8.449219 1.464844 -8.386719 C 1.378906 -8.386719 1.296875 -8.386719 1.246094 -8.328125 C 1.199219 -8.28125 1.199219 -8.195312 1.199219 -8.136719 L 1.199219 -3.828125 C 1.199219 -3.109375 1.199219 -2.386719 1.199219 -1.679688 L 1.199219 -0.601562 C 1.199219 -0.382812 1.03125 -0.0234375 1.332031 0.0585938 C 1.464844 0.0976562 1.585938 0.0585938 1.714844 0.0351562 C 2.160156 -0.0585938 2.628906 -0.046875 3.070312 0.046875 C 3.15625 0.0703125 3.238281 0.0976562 3.3125 0.0703125 C 3.46875 0.0117188 3.492188 -0.191406 3.480469 -0.347656 C 3.480469 -0.839844 3.46875 -1.332031 3.457031 -1.8125 C 3.445312 -2.0625 3.445312 -2.316406 3.433594 -2.566406 C 3.433594 -2.734375 3.433594 -2.890625 3.421875 -3.058594 C 3.421875 -3.109375 3.421875 -3.167969 3.457031 -3.203125 C 3.5625 -3.3125 4.007812 -3.226562 4.164062 -3.226562 C 4.441406 -3.226562 4.703125 -3.238281 4.980469 -3.238281 C 5.484375 -3.238281 5.988281 -3.238281 6.480469 -3.253906 L 7.414062 -3.253906 C 7.65625 -3.265625 7.894531 -3.265625 8.136719 -3.179688 C 8.484375 -3.070312 8.746094 -2.785156 8.988281 -2.507812 L 10.859375 -0.480469 C 11.015625 -0.3125 11.171875 -0.132812 11.386719 -0.046875 C 11.566406 0.0234375 11.773438 0.0234375 11.976562 0.0234375 L 13.765625 0.0234375 C 13.8125 0.0234375 13.871094 0.0117188 13.882812 -0.0234375 C 13.894531 -0.0703125 13.859375 -0.0976562 13.835938 -0.132812 C 13.726562 -0.253906 13.609375 -0.359375 13.5 -0.480469 Z M 7.320312 -4.800781 L 6.78125 -4.800781 C 5.761719 -4.8125 4.738281 -4.8125 3.71875 -4.8125 C 3.574219 -4.8125 3.457031 -4.847656 3.457031 -5.003906 C 3.457031 -5.375 3.457031 -5.734375 3.445312 -6.109375 C 3.445312 -6.265625 3.335938 -6.71875 3.492188 -6.816406 C 3.5625 -6.875 3.71875 -6.839844 3.816406 -6.839844 C 3.960938 -6.839844 4.105469 -6.816406 4.261719 -6.828125 L 4.882812 -6.828125 C 5.941406 -6.839844 6.984375 -6.828125 8.039062 -6.828125 C 8.699219 -6.828125 9.359375 -6.839844 10.019531 -6.730469 C 10.308594 -6.683594 10.609375 -6.613281 10.847656 -6.433594 C 11.089844 -6.265625 11.257812 -5.953125 11.183594 -5.664062 C 11.148438 -5.472656 10.992188 -5.304688 10.824219 -5.195312 C 10.644531 -5.089844 10.453125 -5.027344 10.246094 -4.980469 C 9.3125 -4.765625 8.304688 -4.777344 7.320312 -4.800781 Z M 7.320312 -4.800781 "/></g></g></g></svg>