<svg xmlns="http://www.w3.org/2000/svg" xmlns:xlink="http://www.w3.org/1999/xlink" width="500" zoomAndPan="magnify" viewBox="0 0 375 374.999991" height="500" preserveAspectRatio="xMidYMid meet" version="1.0"><defs><g/><clipPath id="e7e8a56858"><path d="M 66.882812 129.265625 L 306 129.265625 L 306 163 L 66.882812 163 Z M 66.882812 129.265625 " clip-rule="nonzero"/></clipPath></defs><g clip-path="url(#e7e8a56858)"><path fill="#000000" d="M 285.941406 153.59375 C 282.96875 153.035156 280.027344 152.300781 277.132812 151.402344 C 274.242188 150.492188 271.386719 149.453125 268.558594 148.304688 C 265.734375 147.152344 262.925781 145.921875 260.113281 144.644531 L 251.605469 140.75 C 248.730469 139.449219 245.808594 138.164062 242.796875 136.949219 C 242.042969 136.648438 241.292969 136.339844 240.523438 136.050781 L 239.371094 135.617188 L 238.210938 135.191406 C 237.441406 134.90625 236.644531 134.644531 235.863281 134.371094 C 235.46875 134.234375 235.066406 134.109375 234.671875 133.976562 C 234.269531 133.851562 233.878906 133.714844 233.472656 133.597656 C 232.664062 133.351562 231.863281 133.101562 231.039062 132.878906 C 230.628906 132.765625 230.222656 132.648438 229.808594 132.539062 L 228.566406 132.230469 C 227.738281 132.023438 226.914062 131.808594 226.070312 131.636719 L 224.8125 131.367188 C 224.394531 131.277344 223.976562 131.183594 223.550781 131.113281 L 221.011719 130.65625 L 218.453125 130.277344 C 218.242188 130.246094 218.027344 130.210938 217.816406 130.183594 L 217.171875 130.109375 L 215.886719 129.957031 C 215.457031 129.910156 215.03125 129.851562 214.597656 129.816406 L 213.308594 129.699219 C 209.871094 129.398438 206.414062 129.261719 202.976562 129.292969 C 199.539062 129.328125 196.117188 129.5 192.726562 129.804688 C 185.941406 130.414062 179.308594 131.5625 172.855469 133.046875 C 166.414062 134.550781 160.148438 136.402344 154.082031 138.527344 C 151.050781 139.59375 148.058594 140.710938 145.125 141.90625 C 142.183594 143.09375 139.292969 144.339844 136.449219 145.640625 C 142.535156 143.605469 148.664062 141.683594 154.90625 140.035156 C 161.136719 138.363281 167.46875 136.953125 173.863281 135.851562 C 177.058594 135.300781 180.277344 134.859375 183.503906 134.496094 C 185.113281 134.308594 186.730469 134.167969 188.347656 134.03125 L 190.769531 133.863281 C 191.578125 133.808594 192.390625 133.785156 193.199219 133.742188 C 196.429688 133.609375 199.660156 133.578125 202.871094 133.6875 L 205.273438 133.800781 C 206.074219 133.847656 206.871094 133.914062 207.667969 133.96875 L 208.265625 134.011719 L 210.046875 134.1875 C 210.441406 134.226562 210.839844 134.257812 211.234375 134.304688 L 213.59375 134.601562 C 213.988281 134.644531 214.375 134.71875 214.765625 134.777344 L 215.933594 134.957031 L 216.515625 135.046875 C 216.710938 135.078125 216.902344 135.117188 217.097656 135.152344 L 219.40625 135.585938 L 221.6875 136.085938 C 222.070312 136.164062 222.441406 136.265625 222.816406 136.359375 L 223.941406 136.640625 C 224.695312 136.816406 225.429688 137.039062 226.167969 137.25 L 227.273438 137.566406 C 227.640625 137.671875 228.003906 137.792969 228.367188 137.90625 C 229.097656 138.128906 229.816406 138.382812 230.539062 138.625 C 236.304688 140.621094 241.816406 143.167969 247.347656 145.847656 C 252.878906 148.527344 258.441406 151.351562 264.414062 153.894531 C 265.558594 154.382812 266.714844 154.855469 267.890625 155.316406 C 264.351562 155.585938 260.804688 155.792969 257.246094 155.941406 L 253.867188 156.066406 L 250.484375 156.148438 C 249.359375 156.183594 248.226562 156.183594 247.097656 156.199219 L 245.40625 156.214844 C 244.839844 156.222656 244.273438 156.214844 243.710938 156.214844 C 239.1875 156.234375 234.65625 156.140625 230.121094 156.007812 C 225.589844 155.875 221.050781 155.664062 216.507812 155.414062 C 211.964844 155.160156 207.421875 154.871094 202.871094 154.535156 C 193.773438 153.882812 184.667969 153.09375 175.53125 152.324219 C 166.398438 151.554688 157.234375 150.785156 148.035156 150.164062 L 144.585938 149.9375 C 143.433594 149.859375 142.28125 149.785156 141.128906 149.71875 C 138.824219 149.582031 136.511719 149.464844 134.195312 149.359375 C 133.035156 149.304688 131.875 149.265625 130.714844 149.21875 L 127.230469 149.109375 C 126.066406 149.085938 124.90625 149.0625 123.742188 149.050781 L 121.992188 149.039062 C 121.410156 149.03125 120.828125 149.03125 120.246094 149.035156 C 119.078125 149.042969 117.914062 149.039062 116.746094 149.070312 L 114.996094 149.101562 C 114.414062 149.117188 113.828125 149.136719 113.246094 149.160156 L 111.5 149.226562 L 109.75 149.316406 C 108.585938 149.371094 107.421875 149.460938 106.257812 149.542969 C 101.605469 149.878906 96.980469 150.441406 92.429688 151.238281 C 87.882812 152.050781 83.425781 153.121094 79.148438 154.484375 C 74.871094 155.847656 70.761719 157.492188 66.96875 159.453125 C 75.167969 156.296875 84.007812 154.324219 92.96875 153.34375 C 101.949219 152.34375 111.046875 152.324219 120.097656 152.738281 C 120.664062 152.757812 121.230469 152.789062 121.796875 152.824219 L 123.496094 152.917969 C 124.628906 152.984375 125.761719 153.070312 126.890625 153.144531 L 130.289062 153.394531 C 131.421875 153.492188 132.550781 153.578125 133.683594 153.679688 C 135.949219 153.882812 138.210938 154.097656 140.480469 154.328125 C 142.746094 154.546875 145.015625 154.785156 147.285156 155.019531 C 156.355469 155.988281 165.429688 157.03125 174.535156 158.042969 C 192.734375 160.066406 211.089844 161.964844 229.710938 162.6875 C 239.011719 163.050781 248.378906 163.097656 257.742188 162.714844 C 262.425781 162.507812 267.109375 162.21875 271.777344 161.78125 C 276.445312 161.335938 281.097656 160.769531 285.71875 160.078125 L 305.015625 157.179688 Z M 285.941406 153.59375 " fill-opacity="1" fill-rule="nonzero"/></g><path fill="#ff1616" d="M 234.738281 173.339844 C 241.929688 174.910156 249.222656 176.070312 256.550781 176.742188 C 265.746094 177.585938 275.113281 177.703125 284.25 176.230469 C 288.691406 175.511719 293.09375 174.402344 297.257812 172.675781 C 300.675781 171.261719 307.140625 168.964844 307.753906 164.71875 C 307.972656 163.214844 308.03125 160.9375 306.140625 159.761719 C 303.699219 158.25 300.429688 159.773438 298.144531 160.640625 C 295.417969 161.679688 292.730469 162.78125 289.789062 163.585938 C 286.109375 164.59375 282.304688 165.429688 278.464844 166.175781 C 274.132812 167.011719 269.722656 167.765625 265.269531 168.328125 C 267.46875 168.695312 271.121094 169.1875 273.09375 169.433594 C 275.457031 169.726562 277.832031 169.984375 280.21875 170.191406 C 282.726562 170.410156 285.324219 170.570312 287.917969 170.65625 C 276.363281 172.976562 256.6875 175.011719 228.074219 171.722656 C 230.320312 172.300781 232.566406 172.863281 234.738281 173.339844 Z M 234.738281 173.339844 " fill-opacity="1" fill-rule="nonzero"/><g fill="#000000" fill-opacity="1"><g transform="translate(148.549073, 223.865161)"><g><path d="M 18.234375 -21.640625 C 18.175781 -21.789062 18.117188 -21.964844 18.058594 -22.085938 C 17.585938 -23.625 16.164062 -24.71875 14.535156 -24.71875 C 13.796875 -24.71875 13.085938 -24.511719 12.492188 -24.097656 C 12.316406 -24.007812 12.167969 -23.890625 12.046875 -23.800781 C 11.605469 -23.417969 11.160156 -22.707031 10.746094 -21.640625 L 2.488281 -1.125 C 2.398438 -0.859375 2.367188 -0.59375 2.425781 -0.414062 C 2.457031 -0.238281 2.605469 0.03125 3.078125 0.03125 L 6.335938 0.03125 C 6.71875 0.03125 7.015625 -0.207031 7.164062 -0.59375 L 8.851562 -4.824219 L 15.335938 -4.824219 C 15.660156 -4.824219 15.957031 -4.972656 16.105469 -5.238281 C 16.28125 -5.476562 16.3125 -5.800781 16.222656 -6.097656 L 15.15625 -8.734375 C 15.007812 -9.089844 14.683594 -9.324219 14.296875 -9.324219 L 10.628906 -9.324219 L 14.417969 -18.917969 C 14.445312 -18.976562 14.476562 -19.003906 14.476562 -19.003906 L 14.59375 -19.003906 C 14.59375 -19.003906 14.59375 -19.003906 14.625 -18.945312 L 21.964844 -0.621094 C 22.113281 -0.207031 22.410156 0.03125 22.824219 0.03125 L 25.992188 0.03125 C 26.464844 0.03125 26.582031 -0.265625 26.644531 -0.414062 C 26.703125 -0.59375 26.671875 -0.859375 26.554688 -1.125 Z M 18.234375 -21.640625 "/></g></g></g><g fill="#000000" fill-opacity="1"><g transform="translate(177.60751, 223.865161)"><g><path d="M 16.667969 -14.566406 L 7.785156 -14.566406 C 7.339844 -14.566406 6.777344 -14.742188 6.777344 -16.191406 L 6.777344 -18.382812 C 6.777344 -18.917969 6.867188 -19.332031 7.015625 -19.628906 C 7.132812 -19.804688 7.3125 -20.011719 7.816406 -20.011719 L 19.863281 -20.011719 C 20.101562 -20.011719 20.691406 -20.101562 20.691406 -21.019531 L 20.691406 -23.386719 C 20.691406 -24.304688 20.101562 -24.394531 19.863281 -24.394531 L 7.105469 -24.394531 C 5.476562 -24.394531 4.292969 -23.859375 3.523438 -22.765625 C 2.753906 -21.699219 2.367188 -20.277344 2.367188 -18.5625 L 2.367188 -16.3125 C 2.367188 -14.269531 2.78125 -12.609375 3.523438 -11.574219 C 4.441406 -10.359375 5.800781 -10.183594 7.046875 -10.183594 L 15.925781 -10.183594 C 16.371094 -10.183594 16.960938 -10.007812 16.960938 -8.554688 L 16.960938 -6.007812 C 16.960938 -5.476562 16.875 -5.0625 16.695312 -4.765625 C 16.578125 -4.589844 16.398438 -4.382812 15.898438 -4.382812 L 3.257812 -4.382812 C 2.988281 -4.382812 2.398438 -4.292969 2.398438 -3.375 L 2.398438 -1.007812 C 2.398438 -0.0898438 2.988281 0 3.257812 0 L 16.609375 0 C 18.234375 0 19.449219 -0.5625 20.21875 -1.65625 C 20.960938 -2.722656 21.34375 -4.113281 21.34375 -5.832031 L 21.34375 -8.4375 C 21.34375 -10.359375 20.960938 -11.871094 20.191406 -12.9375 C 19.390625 -14.003906 18.207031 -14.566406 16.667969 -14.566406 Z M 16.667969 -14.566406 "/></g></g></g><g fill="#000000" fill-opacity="1"><g transform="translate(201.309793, 223.865161)"><g><path d="M 20.457031 -24.394531 L 9.679688 -24.394531 C 8.378906 -24.394531 7.253906 -24.214844 6.335938 -23.890625 C 5.386719 -23.535156 4.617188 -22.972656 4.054688 -22.230469 C 3.464844 -21.492188 3.019531 -20.515625 2.753906 -19.332031 C 2.488281 -18.175781 2.367188 -16.753906 2.367188 -15.128906 L 2.367188 -9.265625 C 2.367188 -7.609375 2.488281 -6.1875 2.753906 -5.003906 C 3.019531 -3.847656 3.464844 -2.871094 4.054688 -2.101562 C 4.648438 -1.363281 5.417969 -0.800781 6.335938 -0.472656 C 7.253906 -0.148438 8.378906 0.03125 9.679688 0.03125 L 20.457031 0.03125 C 20.691406 0.03125 21.285156 -0.0898438 21.285156 -1.007812 L 21.285156 -3.34375 C 21.285156 -4.261719 20.691406 -4.382812 20.457031 -4.382812 L 9.828125 -4.382812 C 9.207031 -4.382812 8.671875 -4.441406 8.289062 -4.589844 C 7.902344 -4.707031 7.636719 -4.914062 7.402344 -5.238281 C 7.164062 -5.535156 7.015625 -5.980469 6.898438 -6.542969 C 6.808594 -7.132812 6.75 -7.875 6.75 -8.761719 L 6.75 -15.660156 C 6.75 -16.546875 6.808594 -17.289062 6.898438 -17.851562 C 7.015625 -18.414062 7.164062 -18.828125 7.402344 -19.152344 C 7.636719 -19.480469 7.902344 -19.6875 8.289062 -19.804688 C 8.671875 -19.953125 9.207031 -20.011719 9.828125 -20.011719 L 20.457031 -20.011719 C 20.691406 -20.011719 21.285156 -20.128906 21.285156 -21.078125 L 21.285156 -23.355469 C 21.285156 -24.273438 20.691406 -24.394531 20.457031 -24.394531 Z M 20.457031 -24.394531 "/></g></g></g><g fill="#ff1616" fill-opacity="1"><g transform="translate(156.204364, 241.659089)"><g><path d="M 8.339844 -5.941406 L 7.007812 -7.246094 C 6.902344 -7.347656 6.769531 -7.40625 6.621094 -7.40625 L 0.667969 -7.40625 C 0.546875 -7.40625 0.445312 -7.304688 0.445312 -7.1875 L 0.445312 -0.222656 C 0.445312 -0.105469 0.546875 0 0.667969 0 L 6.578125 0 C 6.757812 0 6.875 -0.0429688 7.007812 -0.179688 L 8.339844 -1.511719 C 8.429688 -1.601562 8.519531 -1.75 8.519531 -1.894531 L 8.519531 -5.496094 C 8.519531 -5.6875 8.460938 -5.824219 8.339844 -5.941406 Z M 6.964844 -2.28125 C 6.964844 -2.179688 6.933594 -2.105469 6.859375 -2.03125 L 6.386719 -1.585938 C 6.296875 -1.496094 6.238281 -1.464844 6.164062 -1.464844 L 1.894531 -1.464844 L 1.894531 -5.96875 L 6.148438 -5.96875 C 6.253906 -5.96875 6.328125 -5.941406 6.398438 -5.867188 L 6.84375 -5.394531 L 6.917969 -5.304688 C 6.949219 -5.257812 6.964844 -5.214844 6.964844 -5.15625 Z M 6.964844 -2.28125 "/></g></g></g><g fill="#ff1616" fill-opacity="1"><g transform="translate(168.129577, 241.659089)"><g><path d="M 8.5625 -5.941406 L 7.230469 -7.246094 C 7.125 -7.347656 6.992188 -7.40625 6.84375 -7.40625 L 0.667969 -7.40625 C 0.546875 -7.40625 0.445312 -7.304688 0.445312 -7.1875 L 0.445312 -0.222656 C 0.445312 -0.105469 0.546875 0 0.667969 0 L 1.6875 0 C 1.808594 0 1.910156 -0.105469 1.910156 -0.222656 L 1.910156 -1.628906 L 5.925781 -1.628906 L 6.84375 -0.132812 C 6.902344 -0.0429688 6.976562 0 7.066406 0 L 8.179688 0 C 8.355469 0 8.445312 -0.164062 8.355469 -0.3125 L 7.347656 -1.925781 L 8.5625 -3.140625 C 8.652344 -3.230469 8.742188 -3.378906 8.742188 -3.527344 L 8.742188 -5.496094 C 8.742188 -5.6875 8.683594 -5.824219 8.5625 -5.941406 Z M 1.910156 -5.96875 L 6.371094 -5.96875 C 6.472656 -5.96875 6.546875 -5.941406 6.621094 -5.867188 L 7.066406 -5.394531 L 7.140625 -5.304688 C 7.171875 -5.257812 7.1875 -5.214844 7.1875 -5.15625 L 7.1875 -3.910156 C 7.1875 -3.808594 7.15625 -3.734375 7.082031 -3.660156 L 6.609375 -3.214844 C 6.519531 -3.125 6.460938 -3.097656 6.386719 -3.097656 L 1.910156 -3.097656 Z M 1.910156 -5.96875 "/></g></g></g><g fill="#ff1616" fill-opacity="1"><g transform="translate(180.276941, 241.659089)"><g><path d="M 0.667969 0 L 1.777344 0 C 1.894531 0 2 -0.105469 2 -0.222656 L 2 -7.1875 C 2 -7.304688 1.894531 -7.40625 1.777344 -7.40625 L 0.667969 -7.40625 C 0.546875 -7.40625 0.445312 -7.304688 0.445312 -7.1875 L 0.445312 -0.222656 C 0.445312 -0.105469 0.546875 0 0.667969 0 Z M 0.667969 0 "/></g></g></g><g fill="#ff1616" fill-opacity="1"><g transform="translate(185.685601, 241.659089)"><g><path d="M 8.519531 -7.40625 L 7.527344 -7.40625 C 7.40625 -7.40625 7.304688 -7.304688 7.304688 -7.1875 L 7.304688 -3.613281 C 7.304688 -3.511719 7.273438 -3.453125 7.199219 -3.363281 L 5.6875 -1.585938 L 5.601562 -1.511719 C 5.554688 -1.480469 5.511719 -1.464844 5.453125 -1.464844 L 3.734375 -1.464844 C 3.660156 -1.464844 3.613281 -1.480469 3.585938 -1.511719 L 3.496094 -1.585938 L 1.984375 -3.363281 C 1.910156 -3.453125 1.882812 -3.511719 1.882812 -3.613281 L 1.882812 -7.1875 C 1.882812 -7.304688 1.777344 -7.40625 1.660156 -7.40625 L 0.667969 -7.40625 C 0.546875 -7.40625 0.445312 -7.304688 0.445312 -7.1875 L 0.445312 -3.15625 C 0.445312 -3.007812 0.503906 -2.890625 0.609375 -2.769531 L 2.875 -0.179688 C 2.992188 -0.0585938 3.125 0 3.320312 0 L 5.867188 0 C 6.058594 0 6.207031 -0.0585938 6.3125 -0.179688 L 8.578125 -2.769531 C 8.683594 -2.890625 8.742188 -3.007812 8.742188 -3.15625 L 8.742188 -7.1875 C 8.742188 -7.304688 8.636719 -7.40625 8.519531 -7.40625 Z M 8.519531 -7.40625 "/></g></g></g><g fill="#ff1616" fill-opacity="1"><g transform="translate(197.832966, 241.659089)"><g><path d="M 2.105469 -5.378906 L 2.578125 -5.824219 C 2.667969 -5.910156 2.726562 -5.941406 2.800781 -5.941406 L 8.148438 -5.941406 C 8.265625 -5.941406 8.371094 -6.042969 8.371094 -6.164062 L 8.371094 -7.1875 C 8.371094 -7.304688 8.265625 -7.40625 8.148438 -7.40625 L 2.3125 -7.40625 C 2.132812 -7.40625 2.015625 -7.363281 1.882812 -7.230469 L 0.621094 -5.96875 C 0.535156 -5.882812 0.445312 -5.734375 0.445312 -5.585938 L 0.445312 -1.835938 C 0.445312 -1.644531 0.503906 -1.511719 0.621094 -1.394531 L 1.882812 -0.164062 C 1.984375 -0.0585938 2.117188 0 2.265625 0 L 8.148438 0 C 8.265625 0 8.371094 -0.105469 8.371094 -0.222656 L 8.371094 -1.214844 C 8.371094 -1.332031 8.265625 -1.4375 8.148438 -1.4375 L 2.816406 -1.4375 C 2.710938 -1.4375 2.636719 -1.464844 2.5625 -1.539062 L 2.042969 -2.105469 C 2.015625 -2.148438 2 -2.191406 2 -2.253906 L 2 -3.023438 L 7.421875 -3.023438 C 7.542969 -3.023438 7.644531 -3.125 7.644531 -3.246094 L 7.644531 -4.265625 C 7.644531 -4.386719 7.542969 -4.488281 7.421875 -4.488281 L 2 -4.488281 L 2 -5.125 C 2 -5.230469 2.03125 -5.304688 2.105469 -5.378906 Z M 2.105469 -5.378906 "/></g></g></g><g fill="#ff1616" fill-opacity="1"><g transform="translate(209.610069, 241.659089)"><g><path d="M 8.5625 -5.941406 L 7.230469 -7.246094 C 7.125 -7.347656 6.992188 -7.40625 6.84375 -7.40625 L 0.667969 -7.40625 C 0.546875 -7.40625 0.445312 -7.304688 0.445312 -7.1875 L 0.445312 -0.222656 C 0.445312 -0.105469 0.546875 0 0.667969 0 L 1.6875 0 C 1.808594 0 1.910156 -0.105469 1.910156 -0.222656 L 1.910156 -1.628906 L 5.925781 -1.628906 L 6.84375 -0.132812 C 6.902344 -0.0429688 6.976562 0 7.066406 0 L 8.179688 0 C 8.355469 0 8.445312 -0.164062 8.355469 -0.3125 L 7.347656 -1.925781 L 8.5625 -3.140625 C 8.652344 -3.230469 8.742188 -3.378906 8.742188 -3.527344 L 8.742188 -5.496094 C 8.742188 -5.6875 8.683594 -5.824219 8.5625 -5.941406 Z M 1.910156 -5.96875 L 6.371094 -5.96875 C 6.472656 -5.96875 6.546875 -5.941406 6.621094 -5.867188 L 7.066406 -5.394531 L 7.140625 -5.304688 C 7.171875 -5.257812 7.1875 -5.214844 7.1875 -5.15625 L 7.1875 -3.910156 C 7.1875 -3.808594 7.15625 -3.734375 7.082031 -3.660156 L 6.609375 -3.214844 C 6.519531 -3.125 6.460938 -3.097656 6.386719 -3.097656 L 1.910156 -3.097656 Z M 1.910156 -5.96875 "/></g></g></g></svg>