<svg xmlns="http://www.w3.org/2000/svg" xmlns:xlink="http://www.w3.org/1999/xlink" width="500" zoomAndPan="magnify" viewBox="0 0 375 374.999991" height="500" preserveAspectRatio="xMidYMid meet" version="1.0"><defs><g/><clipPath id="244727f815"><path d="M 0 166.90625 L 375 166.90625 L 375 195.109375 L 0 195.109375 Z M 0 166.90625 " clip-rule="nonzero"/></clipPath></defs><rect x="-37.5" width="450" fill="#ffffff" y="-37.499999" height="449.999989" fill-opacity="1"/><rect x="-37.5" width="450" fill="#000000" y="-37.499999" height="449.999989" fill-opacity="1"/><g fill="#ffffff" fill-opacity="1"><g transform="translate(70.674582, 222.749985)"><g><path d="M 85.921875 -1.203125 L 86.890625 -1.203125 L 86.890625 0 L 59.890625 0 L 59.890625 -1.203125 L 60.96875 -1.203125 C 62.644531 -1.203125 63.898438 -1.738281 64.734375 -2.8125 C 65.578125 -3.894531 66 -4.914062 66 -5.875 C 66 -6.832031 65.84375 -7.796875 65.53125 -8.765625 L 57.84375 -29.15625 L 25.4375 -29.15625 L 17.40625 -8.640625 C 17.082031 -7.679688 16.921875 -6.738281 16.921875 -5.8125 C 16.921875 -4.894531 17.335938 -3.894531 18.171875 -2.8125 C 19.015625 -1.738281 20.28125 -1.203125 21.96875 -1.203125 L 23.046875 -1.203125 L 23.046875 0 L -1.078125 0 L -1.078125 -1.203125 L 0 -1.203125 C 2 -1.203125 3.957031 -1.84375 5.875 -3.125 C 7.800781 -4.40625 9.363281 -6.285156 10.5625 -8.765625 L 37.6875 -73.3125 C 40.644531 -79.800781 42.125 -83.925781 42.125 -85.6875 L 43.203125 -85.6875 L 75.359375 -8.765625 C 76.484375 -6.285156 78.003906 -4.40625 79.921875 -3.125 C 81.847656 -1.84375 83.847656 -1.203125 85.921875 -1.203125 Z M 26.890625 -32.765625 L 56.40625 -32.765625 L 42 -71.28125 Z M 26.890625 -32.765625 "/></g></g></g><g fill="#ffffff" fill-opacity="1"><g transform="translate(156.11462, 222.749985)"><g><path d="M 7.3125 -4.921875 C 7.070312 -6.035156 6.953125 -8.191406 6.953125 -11.390625 C 6.953125 -14.597656 7.554688 -18 8.765625 -21.59375 L 9.84375 -21.59375 C 9.757812 -20.71875 9.71875 -19.835938 9.71875 -18.953125 C 9.71875 -14.078125 11.195312 -10.019531 14.15625 -6.78125 C 17.113281 -3.539062 21.035156 -1.921875 25.921875 -1.921875 C 30.960938 -1.921875 35.101562 -3.441406 38.34375 -6.484375 C 41.582031 -9.523438 43.203125 -13.34375 43.203125 -17.9375 C 43.203125 -22.539062 41.640625 -26.28125 38.515625 -29.15625 L 15.484375 -50.515625 C 11.160156 -54.515625 9 -59.351562 9 -65.03125 C 9 -70.71875 10.898438 -75.582031 14.703125 -79.625 C 18.503906 -83.664062 23.644531 -85.6875 30.125 -85.6875 C 33.164062 -85.6875 36.601562 -85.285156 40.4375 -84.484375 L 45.125 -84.484375 L 45.125 -69.71875 L 44.046875 -69.71875 C 44.046875 -73.476562 42.742188 -76.476562 40.140625 -78.71875 C 37.535156 -80.957031 34.191406 -82.078125 30.109375 -82.078125 C 26.035156 -82.078125 22.617188 -80.71875 19.859375 -78 C 17.097656 -75.28125 15.71875 -71.878906 15.71875 -67.796875 C 15.71875 -63.722656 17.316406 -60.203125 20.515625 -57.234375 L 44.15625 -35.40625 C 48.15625 -31.71875 50.15625 -26.675781 50.15625 -20.28125 C 50.15625 -13.882812 48.113281 -8.625 44.03125 -4.5 C 39.957031 -0.375 34.519531 1.6875 27.71875 1.6875 C 24.195312 1.6875 20.457031 1.144531 16.5 0.0625 C 12.539062 -1.019531 9.476562 -2.679688 7.3125 -4.921875 Z M 7.3125 -4.921875 "/></g></g></g><g fill="#ffffff" fill-opacity="1"><g transform="translate(213.114651, 222.749985)"><g><path d="M 50.046875 1.6875 C 37.398438 1.601562 27.097656 -2.4375 19.140625 -10.4375 C 11.179688 -18.4375 7.203125 -28.976562 7.203125 -42.0625 C 7.203125 -55.144531 11.179688 -65.6875 19.140625 -73.6875 C 27.097656 -81.6875 37.640625 -85.6875 50.765625 -85.6875 C 61.484375 -85.6875 70.960938 -82.960938 79.203125 -77.515625 L 81.59375 -60.59375 L 80.515625 -60.59375 C 78.753906 -67.476562 75.191406 -72.78125 69.828125 -76.5 C 64.472656 -80.21875 58.117188 -82.078125 50.765625 -82.078125 C 40.285156 -82.078125 31.90625 -78.4375 25.625 -71.15625 C 19.34375 -63.875 16.203125 -54.234375 16.203125 -42.234375 C 16.203125 -30.234375 19.300781 -20.570312 25.5 -13.25 C 31.695312 -5.9375 39.878906 -2.160156 50.046875 -1.921875 C 59.003906 -1.921875 66.484375 -4.359375 72.484375 -9.234375 C 78.960938 -14.515625 82.878906 -23.117188 84.234375 -35.046875 L 85.203125 -35.046875 L 83.765625 -16.203125 C 76.484375 -4.273438 65.242188 1.6875 50.046875 1.6875 Z M 50.046875 1.6875 "/></g></g></g><g clip-path="url(#244727f815)"><path fill="#000000" d="M 0 166.90625 L 375.003906 166.90625 L 375.003906 195.109375 L 0 195.109375 Z M 0 166.90625 " fill-opacity="1" fill-rule="nonzero"/></g><g fill="#ffffff" fill-opacity="1"><g transform="translate(101.102935, 184.199988)"><g><path d="M 2.75 -3.40625 C 2.9375 -3.363281 3.101562 -3.34375 3.25 -3.34375 C 3.40625 -3.34375 3.53125 -3.34375 3.625 -3.34375 C 3.71875 -3.351562 3.851562 -3.378906 4.03125 -3.421875 C 4.207031 -3.460938 4.367188 -3.535156 4.515625 -3.640625 C 4.847656 -3.847656 5.09375 -4.175781 5.25 -4.625 C 5.3125 -4.78125 5.34375 -4.992188 5.34375 -5.265625 C 5.34375 -5.753906 5.171875 -6.140625 4.828125 -6.421875 C 4.492188 -6.703125 4.03125 -6.84375 3.4375 -6.84375 L 2.28125 -6.84375 L 2.28125 -0.765625 C 2.289062 -0.515625 2.40625 -0.328125 2.625 -0.203125 C 2.726562 -0.148438 2.84375 -0.125 2.96875 -0.125 L 3.140625 -0.125 L 3.140625 0 L 0.65625 0 L 0.65625 -0.125 L 0.828125 -0.125 C 1.015625 -0.125 1.175781 -0.179688 1.3125 -0.296875 C 1.445312 -0.421875 1.519531 -0.570312 1.53125 -0.75 L 1.53125 -6.4375 C 1.519531 -6.625 1.445312 -6.773438 1.3125 -6.890625 C 1.175781 -7.015625 1.015625 -7.078125 0.828125 -7.078125 L 0.65625 -7.078125 L 0.65625 -7.203125 L 3.46875 -7.203125 C 4.3125 -7.203125 4.976562 -7.015625 5.46875 -6.640625 C 5.957031 -6.273438 6.203125 -5.78125 6.203125 -5.15625 C 6.203125 -4.707031 6.097656 -4.316406 5.890625 -3.984375 C 5.484375 -3.328125 4.851562 -3 4 -3 C 3.570312 -3 3.15625 -3.09375 2.75 -3.28125 Z M 2.75 -3.40625 "/></g></g></g><g fill="#ffffff" fill-opacity="1"><g transform="translate(114.938951, 184.199988)"><g><path d="M 2.90625 -6.828125 L 2.265625 -6.828125 L 2.265625 -0.765625 C 2.273438 -0.515625 2.390625 -0.328125 2.609375 -0.203125 C 2.710938 -0.148438 2.828125 -0.125 2.953125 -0.125 L 3.109375 -0.125 L 3.125 0 L 0.65625 0 L 0.65625 -0.125 L 0.828125 -0.125 C 1.015625 -0.125 1.171875 -0.179688 1.296875 -0.296875 C 1.429688 -0.421875 1.5 -0.570312 1.5 -0.75 L 1.5 -6.453125 C 1.5 -6.628906 1.429688 -6.773438 1.296875 -6.890625 C 1.171875 -7.015625 1.015625 -7.078125 0.828125 -7.078125 L 0.65625 -7.078125 L 0.65625 -7.203125 L 3.671875 -7.203125 C 4.421875 -7.203125 5.015625 -7.03125 5.453125 -6.6875 C 5.890625 -6.34375 6.109375 -5.890625 6.109375 -5.328125 C 6.109375 -4.765625 5.929688 -4.296875 5.578125 -3.921875 C 5.222656 -3.546875 4.773438 -3.332031 4.234375 -3.28125 C 4.492188 -3.164062 4.800781 -2.851562 5.15625 -2.34375 C 5.144531 -2.34375 5.28125 -2.164062 5.5625 -1.8125 C 5.851562 -1.457031 6.082031 -1.179688 6.25 -0.984375 C 6.425781 -0.796875 6.570312 -0.648438 6.6875 -0.546875 C 6.976562 -0.265625 7.316406 -0.125 7.703125 -0.125 L 7.703125 0 L 7.328125 0 C 6.703125 0 6.207031 -0.125 5.84375 -0.375 C 5.570312 -0.550781 5.320312 -0.78125 5.09375 -1.0625 C 5.050781 -1.125 4.847656 -1.40625 4.484375 -1.90625 C 4.128906 -2.40625 3.941406 -2.671875 3.921875 -2.703125 C 3.492188 -3.234375 3.09375 -3.5 2.71875 -3.5 L 2.71875 -3.625 C 3.644531 -3.625 4.207031 -3.671875 4.40625 -3.765625 C 4.664062 -3.898438 4.84375 -4.046875 4.9375 -4.203125 C 5.144531 -4.523438 5.25 -4.875 5.25 -5.25 C 5.25 -5.738281 5.101562 -6.113281 4.8125 -6.375 C 4.519531 -6.644531 4.128906 -6.789062 3.640625 -6.8125 C 3.429688 -6.820312 3.1875 -6.828125 2.90625 -6.828125 Z M 2.90625 -6.828125 "/></g></g></g><g fill="#ffffff" fill-opacity="1"><g transform="translate(129.66296, 184.199988)"><g><path d="M 0.828125 -0.125 C 1.046875 -0.125 1.234375 -0.1875 1.390625 -0.3125 C 1.546875 -0.4375 1.625 -0.585938 1.625 -0.765625 L 1.625 -6.4375 C 1.625 -6.613281 1.546875 -6.765625 1.390625 -6.890625 C 1.234375 -7.015625 1.039062 -7.078125 0.8125 -7.078125 L 0.65625 -7.078125 L 0.65625 -7.203125 L 3.375 -7.203125 L 3.375 -7.078125 L 3.21875 -7.078125 C 3 -7.078125 2.8125 -7.015625 2.65625 -6.890625 C 2.5 -6.773438 2.414062 -6.628906 2.40625 -6.453125 L 2.40625 -0.75 C 2.40625 -0.570312 2.484375 -0.421875 2.640625 -0.296875 C 2.804688 -0.179688 3 -0.125 3.21875 -0.125 L 3.375 -0.125 L 3.390625 0 L 0.65625 0 L 0.65625 -0.125 Z M 0.828125 -0.125 "/></g></g></g><g fill="#ffffff" fill-opacity="1"><g transform="translate(140.894966, 184.199988)"><g><path d="M 8.03125 -7.078125 L 7.9375 -7.078125 C 7.757812 -7.078125 7.585938 -7.019531 7.421875 -6.90625 C 7.253906 -6.789062 7.109375 -6.617188 6.984375 -6.390625 C 5.242188 -2.640625 4.335938 -0.675781 4.265625 -0.5 C 4.128906 -0.164062 4.054688 0.0546875 4.046875 0.171875 L 3.9375 0.171875 L 0.96875 -6.375 C 0.738281 -6.84375 0.429688 -7.078125 0.046875 -7.078125 L -0.046875 -7.078125 L -0.046875 -7.203125 L 2.421875 -7.203125 L 2.421875 -7.078125 L 2.3125 -7.078125 C 2.164062 -7.078125 2.050781 -7.019531 1.96875 -6.90625 C 1.894531 -6.800781 1.859375 -6.703125 1.859375 -6.609375 C 1.859375 -6.523438 1.875 -6.4375 1.90625 -6.34375 L 4.046875 -1.109375 L 6.25 -6.328125 C 6.289062 -6.429688 6.3125 -6.523438 6.3125 -6.609375 C 6.3125 -6.703125 6.269531 -6.800781 6.1875 -6.90625 C 6.113281 -7.019531 5.992188 -7.078125 5.828125 -7.078125 L 5.75 -7.078125 L 5.75 -7.203125 L 8.03125 -7.203125 Z M 8.03125 -7.078125 "/></g></g></g><g fill="#ffffff" fill-opacity="1"><g transform="translate(156.050977, 184.199988)"><g><path d="M 7.921875 -0.125 L 8.015625 -0.125 L 8.015625 0 L 5.5625 0 L 5.5625 -0.125 L 5.65625 -0.125 C 5.800781 -0.125 5.914062 -0.175781 6 -0.28125 C 6.082031 -0.382812 6.125 -0.476562 6.125 -0.5625 C 6.125 -0.65625 6.109375 -0.75 6.078125 -0.84375 L 5.40625 -2.4375 L 2.375 -2.4375 L 1.71875 -0.875 C 1.675781 -0.769531 1.65625 -0.671875 1.65625 -0.578125 C 1.65625 -0.484375 1.691406 -0.382812 1.765625 -0.28125 C 1.847656 -0.175781 1.972656 -0.125 2.140625 -0.125 L 2.234375 -0.125 L 2.234375 0 L -0.0625 0 L -0.0625 -0.125 L 0.03125 -0.125 C 0.195312 -0.125 0.363281 -0.179688 0.53125 -0.296875 C 0.707031 -0.410156 0.851562 -0.582031 0.96875 -0.8125 C 2.71875 -4.5625 3.628906 -6.523438 3.703125 -6.703125 C 3.835938 -7.035156 3.910156 -7.257812 3.921875 -7.375 L 4.03125 -7.375 L 7 -0.8125 C 7.226562 -0.351562 7.535156 -0.125 7.921875 -0.125 Z M 2.53125 -2.796875 L 5.265625 -2.796875 L 3.921875 -6.078125 Z M 2.53125 -2.796875 "/></g></g></g><g fill="#ffffff" fill-opacity="1"><g transform="translate(171.206987, 184.199988)"><g><path d="M 3.859375 -6.859375 L 3.859375 -0.75 C 3.867188 -0.507812 3.988281 -0.328125 4.21875 -0.203125 C 4.320312 -0.148438 4.441406 -0.125 4.578125 -0.125 L 4.703125 -0.125 L 4.703125 0 L 2.234375 0 L 2.234375 -0.125 L 2.375 -0.125 C 2.5625 -0.125 2.722656 -0.1875 2.859375 -0.3125 C 3.003906 -0.4375 3.078125 -0.585938 3.078125 -0.765625 L 3.078125 -6.859375 L 0.90625 -6.859375 C 0.726562 -6.859375 0.582031 -6.796875 0.46875 -6.671875 C 0.363281 -6.546875 0.3125 -6.398438 0.3125 -6.234375 L 0.3125 -6.046875 L 0.1875 -6.046875 L 0.1875 -7.40625 C 0.34375 -7.34375 0.566406 -7.296875 0.859375 -7.265625 C 1.148438 -7.234375 1.367188 -7.21875 1.515625 -7.21875 L 5.421875 -7.21875 C 5.992188 -7.21875 6.441406 -7.28125 6.765625 -7.40625 L 6.765625 -6.046875 L 6.640625 -6.046875 L 6.640625 -6.234375 C 6.640625 -6.398438 6.582031 -6.546875 6.46875 -6.671875 C 6.351562 -6.796875 6.207031 -6.859375 6.03125 -6.859375 Z M 3.859375 -6.859375 "/></g></g></g><g fill="#ffffff" fill-opacity="1"><g transform="translate(185.342997, 184.199988)"><g><path d="M 0.828125 -0.125 C 1.015625 -0.125 1.175781 -0.179688 1.3125 -0.296875 C 1.445312 -0.421875 1.519531 -0.570312 1.53125 -0.75 L 1.53125 -6.453125 C 1.53125 -6.628906 1.457031 -6.773438 1.3125 -6.890625 C 1.175781 -7.015625 1.015625 -7.078125 0.828125 -7.078125 L 0.65625 -7.078125 L 0.65625 -7.203125 L 4.15625 -7.203125 C 4.488281 -7.203125 4.78125 -7.222656 5.03125 -7.265625 C 5.28125 -7.316406 5.441406 -7.359375 5.515625 -7.390625 L 5.515625 -6.03125 L 5.375 -6.03125 L 5.375 -6.21875 C 5.375 -6.382812 5.316406 -6.523438 5.203125 -6.640625 C 5.097656 -6.765625 4.957031 -6.828125 4.78125 -6.828125 L 2.28125 -6.828125 L 2.28125 -3.78125 L 4.328125 -3.78125 C 4.492188 -3.78125 4.617188 -3.828125 4.703125 -3.921875 C 4.785156 -4.015625 4.828125 -4.132812 4.828125 -4.28125 L 4.828125 -4.4375 L 4.953125 -4.4375 L 4.953125 -2.765625 L 4.828125 -2.765625 L 4.828125 -2.921875 C 4.828125 -3.140625 4.742188 -3.289062 4.578125 -3.375 C 4.503906 -3.394531 4.4375 -3.410156 4.375 -3.421875 L 2.28125 -3.421875 L 2.28125 -0.375 L 4.15625 -0.375 C 4.53125 -0.375 4.84375 -0.4375 5.09375 -0.5625 C 5.34375 -0.6875 5.535156 -0.835938 5.671875 -1.015625 C 5.804688 -1.191406 5.941406 -1.425781 6.078125 -1.71875 L 6.1875 -1.71875 L 5.53125 0 L 0.65625 0 L 0.65625 -0.125 Z M 0.828125 -0.125 "/></g></g></g><g fill="#ffffff" fill-opacity="1"><g transform="translate(199.095012, 184.199988)"><g/></g></g><g fill="#ffffff" fill-opacity="1"><g transform="translate(209.295027, 184.199988)"><g><path d="M 8.515625 -3.59375 C 8.515625 -2.488281 8.164062 -1.613281 7.46875 -0.96875 C 6.78125 -0.320312 5.847656 0 4.671875 0 L 0.65625 0 L 0.65625 -0.125 L 0.8125 -0.125 C 1.007812 -0.125 1.171875 -0.1875 1.296875 -0.3125 C 1.421875 -0.4375 1.488281 -0.585938 1.5 -0.765625 L 1.5 -6.4375 C 1.488281 -6.625 1.414062 -6.773438 1.28125 -6.890625 C 1.15625 -7.015625 0.992188 -7.078125 0.796875 -7.078125 L 0.65625 -7.078125 L 0.65625 -7.203125 L 4.671875 -7.203125 C 5.453125 -7.203125 6.128906 -7.054688 6.703125 -6.765625 C 7.285156 -6.484375 7.734375 -6.066406 8.046875 -5.515625 C 8.359375 -4.972656 8.515625 -4.332031 8.515625 -3.59375 Z M 2.28125 -6.84375 L 2.28125 -0.359375 L 4.671875 -0.359375 C 5.585938 -0.359375 6.3125 -0.644531 6.84375 -1.21875 C 7.382812 -1.800781 7.65625 -2.59375 7.65625 -3.59375 C 7.65625 -4.59375 7.382812 -5.382812 6.84375 -5.96875 C 6.3125 -6.550781 5.585938 -6.84375 4.671875 -6.84375 Z M 2.28125 -6.84375 "/></g></g></g><g fill="#ffffff" fill-opacity="1"><g transform="translate(225.615045, 184.199988)"><g><path d="M 2.90625 -6.828125 L 2.265625 -6.828125 L 2.265625 -0.765625 C 2.273438 -0.515625 2.390625 -0.328125 2.609375 -0.203125 C 2.710938 -0.148438 2.828125 -0.125 2.953125 -0.125 L 3.109375 -0.125 L 3.125 0 L 0.65625 0 L 0.65625 -0.125 L 0.828125 -0.125 C 1.015625 -0.125 1.171875 -0.179688 1.296875 -0.296875 C 1.429688 -0.421875 1.5 -0.570312 1.5 -0.75 L 1.5 -6.453125 C 1.5 -6.628906 1.429688 -6.773438 1.296875 -6.890625 C 1.171875 -7.015625 1.015625 -7.078125 0.828125 -7.078125 L 0.65625 -7.078125 L 0.65625 -7.203125 L 3.671875 -7.203125 C 4.421875 -7.203125 5.015625 -7.03125 5.453125 -6.6875 C 5.890625 -6.34375 6.109375 -5.890625 6.109375 -5.328125 C 6.109375 -4.765625 5.929688 -4.296875 5.578125 -3.921875 C 5.222656 -3.546875 4.773438 -3.332031 4.234375 -3.28125 C 4.492188 -3.164062 4.800781 -2.851562 5.15625 -2.34375 C 5.144531 -2.34375 5.28125 -2.164062 5.5625 -1.8125 C 5.851562 -1.457031 6.082031 -1.179688 6.25 -0.984375 C 6.425781 -0.796875 6.570312 -0.648438 6.6875 -0.546875 C 6.976562 -0.265625 7.316406 -0.125 7.703125 -0.125 L 7.703125 0 L 7.328125 0 C 6.703125 0 6.207031 -0.125 5.84375 -0.375 C 5.570312 -0.550781 5.320312 -0.78125 5.09375 -1.0625 C 5.050781 -1.125 4.847656 -1.40625 4.484375 -1.90625 C 4.128906 -2.40625 3.941406 -2.671875 3.921875 -2.703125 C 3.492188 -3.234375 3.09375 -3.5 2.71875 -3.5 L 2.71875 -3.625 C 3.644531 -3.625 4.207031 -3.671875 4.40625 -3.765625 C 4.664062 -3.898438 4.84375 -4.046875 4.9375 -4.203125 C 5.144531 -4.523438 5.25 -4.875 5.25 -5.25 C 5.25 -5.738281 5.101562 -6.113281 4.8125 -6.375 C 4.519531 -6.644531 4.128906 -6.789062 3.640625 -6.8125 C 3.429688 -6.820312 3.1875 -6.828125 2.90625 -6.828125 Z M 2.90625 -6.828125 "/></g></g></g><g fill="#ffffff" fill-opacity="1"><g transform="translate(240.339058, 184.199988)"><g><path d="M 0.828125 -0.125 C 1.046875 -0.125 1.234375 -0.1875 1.390625 -0.3125 C 1.546875 -0.4375 1.625 -0.585938 1.625 -0.765625 L 1.625 -6.4375 C 1.625 -6.613281 1.546875 -6.765625 1.390625 -6.890625 C 1.234375 -7.015625 1.039062 -7.078125 0.8125 -7.078125 L 0.65625 -7.078125 L 0.65625 -7.203125 L 3.375 -7.203125 L 3.375 -7.078125 L 3.21875 -7.078125 C 3 -7.078125 2.8125 -7.015625 2.65625 -6.890625 C 2.5 -6.773438 2.414062 -6.628906 2.40625 -6.453125 L 2.40625 -0.75 C 2.40625 -0.570312 2.484375 -0.421875 2.640625 -0.296875 C 2.804688 -0.179688 3 -0.125 3.21875 -0.125 L 3.375 -0.125 L 3.390625 0 L 0.65625 0 L 0.65625 -0.125 Z M 0.828125 -0.125 "/></g></g></g><g fill="#ffffff" fill-opacity="1"><g transform="translate(251.571068, 184.199988)"><g><path d="M 8.03125 -7.078125 L 7.9375 -7.078125 C 7.757812 -7.078125 7.585938 -7.019531 7.421875 -6.90625 C 7.253906 -6.789062 7.109375 -6.617188 6.984375 -6.390625 C 5.242188 -2.640625 4.335938 -0.675781 4.265625 -0.5 C 4.128906 -0.164062 4.054688 0.0546875 4.046875 0.171875 L 3.9375 0.171875 L 0.96875 -6.375 C 0.738281 -6.84375 0.429688 -7.078125 0.046875 -7.078125 L -0.046875 -7.078125 L -0.046875 -7.203125 L 2.421875 -7.203125 L 2.421875 -7.078125 L 2.3125 -7.078125 C 2.164062 -7.078125 2.050781 -7.019531 1.96875 -6.90625 C 1.894531 -6.800781 1.859375 -6.703125 1.859375 -6.609375 C 1.859375 -6.523438 1.875 -6.4375 1.90625 -6.34375 L 4.046875 -1.109375 L 6.25 -6.328125 C 6.289062 -6.429688 6.3125 -6.523438 6.3125 -6.609375 C 6.3125 -6.703125 6.269531 -6.800781 6.1875 -6.90625 C 6.113281 -7.019531 5.992188 -7.078125 5.828125 -7.078125 L 5.75 -7.078125 L 5.75 -7.203125 L 8.03125 -7.203125 Z M 8.03125 -7.078125 "/></g></g></g><g fill="#ffffff" fill-opacity="1"><g transform="translate(266.727084, 184.199988)"><g><path d="M 0.828125 -0.125 C 1.015625 -0.125 1.175781 -0.179688 1.3125 -0.296875 C 1.445312 -0.421875 1.519531 -0.570312 1.53125 -0.75 L 1.53125 -6.453125 C 1.53125 -6.628906 1.457031 -6.773438 1.3125 -6.890625 C 1.175781 -7.015625 1.015625 -7.078125 0.828125 -7.078125 L 0.65625 -7.078125 L 0.65625 -7.203125 L 4.15625 -7.203125 C 4.488281 -7.203125 4.78125 -7.222656 5.03125 -7.265625 C 5.28125 -7.316406 5.441406 -7.359375 5.515625 -7.390625 L 5.515625 -6.03125 L 5.375 -6.03125 L 5.375 -6.21875 C 5.375 -6.382812 5.316406 -6.523438 5.203125 -6.640625 C 5.097656 -6.765625 4.957031 -6.828125 4.78125 -6.828125 L 2.28125 -6.828125 L 2.28125 -3.78125 L 4.328125 -3.78125 C 4.492188 -3.78125 4.617188 -3.828125 4.703125 -3.921875 C 4.785156 -4.015625 4.828125 -4.132812 4.828125 -4.28125 L 4.828125 -4.4375 L 4.953125 -4.4375 L 4.953125 -2.765625 L 4.828125 -2.765625 L 4.828125 -2.921875 C 4.828125 -3.140625 4.742188 -3.289062 4.578125 -3.375 C 4.503906 -3.394531 4.4375 -3.410156 4.375 -3.421875 L 2.28125 -3.421875 L 2.28125 -0.375 L 4.15625 -0.375 C 4.53125 -0.375 4.84375 -0.4375 5.09375 -0.5625 C 5.34375 -0.6875 5.535156 -0.835938 5.671875 -1.015625 C 5.804688 -1.191406 5.941406 -1.425781 6.078125 -1.71875 L 6.1875 -1.71875 L 5.53125 0 L 0.65625 0 L 0.65625 -0.125 Z M 0.828125 -0.125 "/></g></g></g><g fill="#ffffff" fill-opacity="1"><g transform="translate(280.479105, 184.199988)"><g><path d="M 2.90625 -6.828125 L 2.265625 -6.828125 L 2.265625 -0.765625 C 2.273438 -0.515625 2.390625 -0.328125 2.609375 -0.203125 C 2.710938 -0.148438 2.828125 -0.125 2.953125 -0.125 L 3.109375 -0.125 L 3.125 0 L 0.65625 0 L 0.65625 -0.125 L 0.828125 -0.125 C 1.015625 -0.125 1.171875 -0.179688 1.296875 -0.296875 C 1.429688 -0.421875 1.5 -0.570312 1.5 -0.75 L 1.5 -6.453125 C 1.5 -6.628906 1.429688 -6.773438 1.296875 -6.890625 C 1.171875 -7.015625 1.015625 -7.078125 0.828125 -7.078125 L 0.65625 -7.078125 L 0.65625 -7.203125 L 3.671875 -7.203125 C 4.421875 -7.203125 5.015625 -7.03125 5.453125 -6.6875 C 5.890625 -6.34375 6.109375 -5.890625 6.109375 -5.328125 C 6.109375 -4.765625 5.929688 -4.296875 5.578125 -3.921875 C 5.222656 -3.546875 4.773438 -3.332031 4.234375 -3.28125 C 4.492188 -3.164062 4.800781 -2.851562 5.15625 -2.34375 C 5.144531 -2.34375 5.28125 -2.164062 5.5625 -1.8125 C 5.851562 -1.457031 6.082031 -1.179688 6.25 -0.984375 C 6.425781 -0.796875 6.570312 -0.648438 6.6875 -0.546875 C 6.976562 -0.265625 7.316406 -0.125 7.703125 -0.125 L 7.703125 0 L 7.328125 0 C 6.703125 0 6.207031 -0.125 5.84375 -0.375 C 5.570312 -0.550781 5.320312 -0.78125 5.09375 -1.0625 C 5.050781 -1.125 4.847656 -1.40625 4.484375 -1.90625 C 4.128906 -2.40625 3.941406 -2.671875 3.921875 -2.703125 C 3.492188 -3.234375 3.09375 -3.5 2.71875 -3.5 L 2.71875 -3.625 C 3.644531 -3.625 4.207031 -3.671875 4.40625 -3.765625 C 4.664062 -3.898438 4.84375 -4.046875 4.9375 -4.203125 C 5.144531 -4.523438 5.25 -4.875 5.25 -5.25 C 5.25 -5.738281 5.101562 -6.113281 4.8125 -6.375 C 4.519531 -6.644531 4.128906 -6.789062 3.640625 -6.8125 C 3.429688 -6.820312 3.1875 -6.828125 2.90625 -6.828125 Z M 2.90625 -6.828125 "/></g></g></g></svg>